# xmcd CD database file
#
# Track frame offsets:
#	150
#	30920
#	59455
#	100935
#	153070
#	167317
#
# Disc length: 2577 seconds
#
# Revision: 1
# Processed by: cddbd v1.4PL0 Copyright (c) Steve Scherf et al.
# Submitted via: CDex 1.50Beta7
#
DISCID=350a0f06
DTITLE=Oscar Peterson - Night Child
DYEAR=1979
DGENRE=Jazz
TTITLE0=Solar winds
TTITLE1=Dancin' feet
TTITLE2=Soliloquy (blues for Dr. John)
TTITLE3=Night child
TTITLE4=Charlie
TTITLE5=Teenager
EXTD=YEAR: 1979
EXTT0=
EXTT1=
EXTT2=
EXTT3=
EXTT4=
EXTT5=
PLAYORDER=
